<?xml version="1.0" encoding="UTF-8" standalone="no"?>
<!DOCTYPE svg PUBLIC "-//W3C//DTD SVG 1.1//EN" "http://www.w3.org/Graphics/SVG/1.1/DTD/svg11.dtd">
<svg width="100%" height="100%" viewBox="0 0 1812 384" version="1.1" xmlns="http://www.w3.org/2000/svg" xmlns:xlink="http://www.w3.org/1999/xlink" xml:space="preserve" xmlns:serif="http://www.serif.com/" style="fill-rule:evenodd;clip-rule:evenodd;stroke-linejoin:round;stroke-miterlimit:2;">
    <g transform="matrix(1,0,0,1,-0.5,-8.2)">
        <path d="M568.6,356.3L568.6,225.6L668.4,225.6L668.4,175.5L568.6,175.5L568.6,89.3L699,89.3L699,39.2L512.4,39.2L512.4,356.3L568.6,356.3ZM750.4,105.1C768.3,105.1 782.3,91.1 782.3,73C782.3,54.5 768.3,40.9 750.4,40.9C733,40.9 718.1,54.5 718.1,73C718.1,91.1 733,105.1 750.4,105.1ZM872.6,244L872.6,356.3L819.2,356.3L819.2,141.3L872.6,141.3L872.6,175.4C883.6,148.7 917.2,136.7 939.3,136.7C994.5,136.7 1025.4,173.1 1025.4,235.7L1025.4,356.3L972,356.3L972,240.7C972,206.6 951.3,189.2 927.4,189.2C903,189.2 872.6,202.5 872.6,244ZM1323.4,361.3C1345,361.3 1379.1,349.3 1390.1,322.6L1390.1,356.2L1443.5,356.2L1443.5,141.3L1390.1,141.3L1390.1,253.6C1390.1,295.5 1359.7,308.8 1335.3,308.8C1311.4,308.8 1290.7,291.3 1290.7,256.8L1290.7,141.3L1237.3,141.3L1237.3,261.9C1237.4,324.5 1268.2,361.3 1323.4,361.3ZM1662,327.3C1647.3,350.3 1616.9,360.9 1590.7,360.9C1534.1,360.9 1484.8,317.2 1484.8,248.6C1484.8,179.6 1533.6,136.8 1590.2,136.8C1617.4,136.8 1647.3,147.4 1662,169.9L1662,141.4L1715.4,141.4L1715.4,356.3L1662,356.3L1662,327.3ZM1595.1,310.7C1562,310.7 1534.8,284 1534.8,248.1C1534.8,212.2 1562,186.4 1595.1,186.4C1625.9,186.4 1657.2,210.3 1657.2,248.1C1657.3,285.8 1627.8,310.7 1595.1,310.7ZM1812.4,41.9L1812.4,357.3L1759,357.3L1759,56.2L1812.4,41.9ZM777.5,356.3L777.5,141.3L724.1,141.3L724.1,356.3L777.5,356.3ZM1195.3,358.1C1187.5,359.9 1176,360.9 1167.7,360.9C1118,360.9 1084.9,330.5 1084.9,273.5L1084.9,190L1042,190L1042,141.2L1084.8,141.2L1084.8,87.3L1136.3,73.5L1136.3,141.2L1195.2,141.2L1195.2,190L1136.3,190L1136.3,272.4C1136.3,300.9 1153.8,312.4 1178.6,312.4C1184.1,312.4 1190.1,311.9 1195.2,310.6L1195.2,358.1L1195.3,358.1Z" style="fill:rgb(40,40,40);"/>
        <g>
            <circle cx="250.5" cy="142.2" r="134" style="fill:rgb(160,200,255);"/>
            <path d="M250.5,142.2L0.5,142.2L0.5,392.2C138.6,392.2 250.5,280.3 250.5,142.2Z" style="fill:rgb(0,90,214);fill-rule:nonzero;"/>
            <path d="M214.6,271.3C237.4,233.6 250.5,189.4 250.5,142.2L116.5,142.2C116.5,203.8 158.1,255.6 214.6,271.3Z" style="fill:rgb(0,63,150);fill-rule:nonzero;"/>
        </g>
    </g>
</svg>
